<svg width="49" height="48" fill="none" xmlns="http://www.w3.org/2000/svg"><g clip-path="url('#clip0_965_127')"><path d="M44.15 22.282a4.712 4.712 0 0 0-1.682.324l-5.74-4.785a6.214 6.214 0 0 0 .241-1.633c0-3.378-2.666-6.093-5.984-6.093S25 12.81 25 16.188c0 .966.24 1.865.628 2.674l-6.964 8.38a4.855 4.855 0 0 0-.845-.085c-.428 0-.833.073-1.226.18l-6.135-6.247c.108-.397.18-.81.18-1.245 0-2.701-2.136-4.875-4.788-4.875s-4.787 2.174-4.787 4.874c0 2.701 2.135 4.875 4.787 4.875.429 0 .833-.073 1.226-.18l6.135 6.247a4.728 4.728 0 0 0-.18 1.246c0 2.7 2.136 4.875 4.788 4.875s4.788-2.175 4.788-4.875c0-.578-.115-1.121-.295-1.636l6.973-8.39c.544.161 1.106.276 1.7.276a5.85 5.85 0 0 0 2.712-.685l5.743 4.785c-.045.256-.071.515-.077.775 0 2.7 2.135 4.875 4.788 4.875 2.652 0 4.787-2.174 4.787-4.875 0-2.7-2.135-4.875-4.787-4.875Z" fill="#0D5C63"/></g><defs><clipPath id="clip0_965_127"><path fill="#fff" transform="translate(.5)" d="M0 0h48v48H0z"/></clipPath></defs></svg>