<svg width="48" height="48" fill="none" xmlns="http://www.w3.org/2000/svg"><g clip-path="url('#clip0_964_18518')" fill="#fff"><path d="M29.142 13.624h11.997v3.445H29.142v-3.445ZM29.142 22.237h11.997v3.446H29.142v-3.446ZM29.142 30.85h11.997v3.446H29.142V30.85Z"/><path d="M44.567 5.011H3.432c-.909.001-1.78.364-2.423 1.01A3.458 3.458 0 0 0 .004 8.457v31.007c0 .914.362 1.79 1.005 2.436a3.423 3.423 0 0 0 2.423 1.01h41.135a3.424 3.424 0 0 0 2.423-1.01 3.459 3.459 0 0 0 1.005-2.436V8.457c0-.914-.362-1.79-1.005-2.436a3.422 3.422 0 0 0-2.423-1.01ZM3.432 8.457h18.854v31.007H3.432V8.457Zm22.282 31.007V8.457h18.853l.004 31.007H25.714Z"/></g><defs><clipPath id="clip0_964_18518"><path fill="#fff" transform="translate(0 5)" d="M0 0h48v37.92H0z"/></clipPath></defs></svg>